<svg width="147" height="44" viewBox="0 0 147 44" fill="none" xmlns="http://www.w3.org/2000/svg">
<path d="M31.52 20.965C30.0733 20.965 28.8717 21.35 27.915 22.12C26.9817 22.8667 26.515 23.9517 26.515 25.375C26.515 26.6117 26.9233 27.615 27.74 28.385C28.5567 29.155 29.63 29.54 30.96 29.54C32.3367 29.54 33.4333 29.1317 34.25 28.315C35.09 27.4983 35.51 26.425 35.51 25.095H40.76C40.76 26.9383 40.3633 28.56 39.57 29.96C38.7767 31.3367 37.645 32.41 36.175 33.18C34.7283 33.9267 33.0367 34.3 31.1 34.3C29.14 34.3 27.39 33.9267 25.85 33.18C24.3333 32.4333 23.1433 31.3833 22.28 30.03C21.44 28.6533 21.02 27.0783 21.02 25.305C21.02 24.955 21.0317 24.6867 21.055 24.5H8.63V27.93C8.63 28.7233 8.81667 29.3767 9.19 29.89C9.58667 30.38 10.1583 30.625 10.905 30.625C11.605 30.625 12.1417 30.3917 12.515 29.925C12.9117 29.4583 13.11 28.8633 13.11 28.14V27.685H18.395C18.4183 27.895 18.43 28.1517 18.43 28.455C18.43 30.555 17.765 32.2233 16.435 33.46C15.1283 34.6967 13.32 35.315 11.01 35.315C9.35333 35.315 7.93 34.9883 6.74 34.335C5.57333 33.6583 4.68667 32.7483 4.08 31.605C3.49667 30.4383 3.205 29.12 3.205 27.65V20.58H5.795C7.59167 20.58 8.875 20.1833 9.645 19.39C10.415 18.5733 10.8 17.4417 10.8 15.995V13.685H0.405V9.1H42.37V13.685H36.315V20.965H31.52ZM22.63 19.985C23.47 18.8417 24.6017 17.955 26.025 17.325C27.4483 16.695 29.0817 16.3683 30.925 16.345V13.685H16.295V15.995C16.295 17.535 16.015 18.865 15.455 19.985H22.63ZM30.3404 43.375C28.4271 43.375 26.8404 42.8383 25.5804 41.765C24.2971 40.6917 23.6554 39.1633 23.6554 37.18C23.6554 35.15 24.3554 33.5517 25.7554 32.385C27.1554 31.2417 28.9871 30.67 31.2504 30.67C34.6104 30.67 37.0021 31.6617 38.4254 33.645C39.8721 35.6517 40.5954 38.1717 40.5954 41.205L40.5604 43.165H36.0454V40.96C36.0454 38.93 35.6487 37.39 34.8554 36.34C34.0387 35.29 32.8137 34.765 31.1804 34.765C30.2937 34.765 29.5587 34.9633 28.9754 35.36C28.3687 35.78 28.0654 36.3867 28.0654 37.18C28.0654 37.9033 28.3221 38.4633 28.8354 38.86C29.3487 39.2567 29.9787 39.455 30.7254 39.455C31.1221 39.455 31.4371 39.4433 31.6704 39.42V43.34C31.3671 43.3633 30.9237 43.375 30.3404 43.375ZM51.8564 20.125C51.203 20.125 50.6547 20.2533 50.2114 20.51C49.7914 20.7667 49.5814 21.175 49.5814 21.735C49.5814 22.295 49.768 22.7033 50.1414 22.96C50.538 23.2167 51.0397 23.345 51.6464 23.345H53.2214C55.2747 23.345 56.9897 23.835 58.3664 24.815C59.7664 25.7717 60.4664 27.3233 60.4664 29.47C60.4664 31.3833 59.778 32.9 58.4014 34.02C57.0247 35.14 55.0764 35.7 52.5564 35.7C49.9664 35.7 47.843 35.105 46.1864 33.915C44.5297 32.725 43.6547 31.0683 43.5614 28.945H49.0214C49.0447 29.785 49.3714 30.4383 50.0014 30.905C50.6314 31.3483 51.4247 31.57 52.3814 31.57C53.2914 31.57 53.9914 31.3833 54.4814 31.01C54.9947 30.6133 55.2514 30.0883 55.2514 29.435C55.2514 28.6883 54.9714 28.14 54.4114 27.79C53.8747 27.4167 53.1397 27.23 52.2064 27.23H50.9814C49.1847 27.23 47.5747 26.8217 46.1514 26.005C44.7514 25.165 44.0514 23.6833 44.0514 21.56C44.0514 19.81 44.6464 18.4917 45.8364 17.605C47.0497 16.7183 48.5897 16.275 50.4564 16.275H52.9414V13.685H41.1814V9.1H62.1814V13.685H58.2614V20.125H51.8564ZM53.0721 9.24C52.1154 7.77 51.3454 6.70833 50.7621 6.055C50.1787 5.40167 49.5721 4.97 48.9421 4.76C48.3121 4.52667 47.4604 4.41 46.3871 4.41H44.5321V0H46.2821C48.2421 0.0233316 49.7937 0.244998 50.9371 0.664998C52.0804 1.06166 53.2004 1.90167 54.2971 3.185C55.3704 4.445 56.6771 6.46333 58.2171 9.24H53.0721ZM61.1221 6.86C60.2354 6.86 59.4887 6.55667 58.8821 5.95C58.2521 5.32 57.9371 4.56166 57.9371 3.675C57.9371 2.78833 58.2521 2.04167 58.8821 1.435C59.4887 0.804998 60.2354 0.489998 61.1221 0.489998C62.0087 0.489998 62.7671 0.804998 63.3971 1.435C64.0271 2.04167 64.3421 2.78833 64.3421 3.675C64.3421 4.56166 64.0271 5.32 63.3971 5.95C62.7671 6.55667 62.0087 6.86 61.1221 6.86ZM73.9556 20.965C72.5089 20.965 71.3073 21.35 70.3506 22.12C69.4173 22.8667 68.9506 23.9517 68.9506 25.375C68.9506 26.6117 69.3589 27.615 70.1756 28.385C70.9923 29.155 72.0656 29.54 73.3956 29.54C74.7723 29.54 75.8689 29.1317 76.6856 28.315C77.5256 27.4983 77.9456 26.425 77.9456 25.095H83.1956C83.1956 26.9383 82.7989 28.56 82.0056 29.96C81.2123 31.3367 80.0806 32.41 78.6106 33.18C77.1639 33.9267 75.4723 34.3 73.5356 34.3C71.5756 34.3 69.8256 33.9267 68.2856 33.18C66.7689 32.4333 65.5789 31.3833 64.7156 30.03C63.8756 28.6533 63.4556 27.0783 63.4556 25.305C63.4556 23.5317 63.8523 21.98 64.6456 20.65C65.4389 19.2967 66.5823 18.2467 68.0756 17.5C69.5689 16.7533 71.3306 16.3683 73.3606 16.345V13.685H61.0056V9.1H84.8056V13.685H78.7506V20.965H73.9556Z" fill="#FFBA08"/>
<path d="M117.9 9.1V11.55H113.315V35H110.48V28.14C109.92 29.2367 109.057 30.1233 107.89 30.8C106.747 31.4767 105.382 31.815 103.795 31.815C102.232 31.815 100.797 31.4767 99.49 30.8C98.2067 30.1 97.1917 29.12 96.445 27.86C95.6983 26.5767 95.325 25.1067 95.325 23.45C95.325 21.7933 95.6867 20.335 96.41 19.075C97.1567 17.7917 98.1717 16.8117 99.455 16.135C100.738 15.435 102.173 15.085 103.76 15.085C105.347 15.085 106.7 15.4233 107.82 16.1C108.963 16.7767 109.85 17.675 110.48 18.795V11.55H91.965V9.1H117.9ZM104.285 17.08C102.582 17.08 101.135 17.605 99.945 18.655L109.57 27.055C110.293 25.9583 110.655 24.745 110.655 23.415C110.655 22.3417 110.41 21.3267 109.92 20.37C109.43 19.39 108.707 18.5967 107.75 17.99C106.793 17.3833 105.638 17.08 104.285 17.08ZM97.915 23.45C97.915 24.71 98.195 25.8183 98.755 26.775C99.3383 27.7083 100.12 28.4317 101.1 28.945C102.08 29.435 103.165 29.68 104.355 29.68C106.105 29.68 107.54 29.155 108.66 28.105L99.035 19.67C98.2883 20.7433 97.915 22.0033 97.915 23.45ZM110.566 9.24C109.353 7.32667 108.361 5.93833 107.591 5.075C106.798 4.21167 106.039 3.66333 105.316 3.43C104.569 3.17333 103.566 3.045 102.306 3.045H100.836V0.664998H102.271C103.974 0.664998 105.328 0.839998 106.331 1.19C107.334 1.54 108.361 2.31 109.411 3.5C110.461 4.69 111.768 6.60333 113.331 9.24H110.566ZM146.616 11.55H141.996V35H139.056V22.75H122.781V27.895C122.781 29.365 123.119 30.555 123.796 31.465C124.496 32.3517 125.511 32.795 126.841 32.795C128.078 32.795 129.058 32.3867 129.781 31.57C130.504 30.73 130.866 29.6333 130.866 28.28V27.86H133.666C133.689 28.0233 133.701 28.21 133.701 28.42C133.701 30.52 133.083 32.2 131.846 33.46C130.633 34.6967 128.976 35.315 126.876 35.315C124.613 35.315 122.874 34.6267 121.661 33.25C120.471 31.85 119.876 30.0183 119.876 27.755V20.615H123.166C125.126 20.615 126.608 20.09 127.611 19.04C128.638 17.99 129.151 16.555 129.151 14.735V11.55H116.096V9.1H146.616V11.55ZM139.056 11.55H132.021V14.735C132.021 15.9483 131.834 17.0333 131.461 17.99C131.088 18.9467 130.563 19.74 129.886 20.37H139.056V11.55Z" fill="#999999"/>
</svg>
